PathFileType	4	(X/Y/Z)	c:\Git\powerlifing_model_clean\simulations\HC835B\Session1\HC835B_OGW_0002\marker_experimental.trc
DataRate	CameraRate	NumFrames	NumMarkers	Units	OrigDataRate	OrigDataStartFrame	OrigNumFrames
240.000000	240.000000	4	38	mm	240.000000	272	436
Frame#	Time	RPSI			LPSI			RASI			LASI			RTH1			RTH2			RTH3			RTH4			RSK1			RSK2			RSK3			RSK4			RCAL1			RCAL2			RCAL3			RST			RPT			RTN			RFMB			RSMB			RVMB			RFMH			RSMH			RVMH			RPM			LTH1			LTH2			LTH3			LTH4			LSK1			LSK2			LSK3			LSK4			LCAL1			LCAL2			LCAL3			LFMH			LVMH			
		X1	Y1	Z1	X2	Y2	Z2	X3	Y3	Z3	X4	Y4	Z4	X5	Y5	Z5	X6	Y6	Z6	X7	Y7	Z7	X8	Y8	Z8	X9	Y9	Z9	X10	Y10	Z10	X11	Y11	Z11	X12	Y12	Z12	X13	Y13	Z13	X14	Y14	Z14	X15	Y15	Z15	X16	Y16	Z16	X17	Y17	Z17	X18	Y18	Z18	X19	Y19	Z19	X20	Y20	Z20	X21	Y21	Z21	X22	Y22	Z22	X23	Y23	Z23	X24	Y24	Z24	X25	Y25	Z25	X26	Y26	Z26	X27	Y27	Z27	X28	Y28	Z28	X29	Y29	Z29	X30	Y30	Z30	X31	Y31	Z31	X32	Y32	Z32	X33	Y33	Z33	X34	Y34	Z34	X35	Y35	Z35	X36	Y36	Z36	X37	Y37	Z37	X38	Y38	Z38	

273	1.133333333333333	433.5164794921876	1081.326782226563	-628.8879394531251	543.3902587890626	1087.06982421875	-631.0079956054689	385.1179504394532	1050.119262695313	-414.6846313476564	628.8252563476564	1044.07861328125	-428.5127868652345	308.6216430664063	783.836853027344	-404.8791503906251	320.8414611816407	796.1694335937502	-346.9691162109376	321.9591064453126	717.7941284179689	-353.0734558105469	344.6724853515626	728.8742675781251	-300.1767272949219	384.8535461425782	275.4771118164063	-264.6788330078126	374.3719787597657	283.7136535644532	-204.1190643310547	387.6852111816407	229.4604492187501	-229.0538940429688	389.4513244628907	238.2117309570313	-169.439453125	458.122528076172	84.43361663818361	-215.7777862548829	488.4631652832032	50.68883132934572	-194.7351684570313	425.0300903320314	48.46241760253908	-205.6314697265626	493.672332763672	81.05358886718751	-131.365219116211	392.216278076172	70.59619903564455	-156.1845703125	469.2784423828126	117.5854263305664	-89.39749908447267	462.3292541503907	110.9910583496094	-55.62282562255861	412.5656127929689	133.0534820556641	-58.48581314086915	379.0451354980469	56.26154708862306	-107.4059143066407	461.2310791015626	98.82813262939456	1.33893620967865	405.2674865722657	117.9922409057617	5.641105175018311	357.1998291015626	69.43435668945314	-34.04582214355469	408.6906738281251	130.6810607910157	58.54049301147462	681.5177001953126	788.3631591796877	-589.4698486328126	675.4660644531251	761.3378295898439	-535.5327148437501	672.0506591796876	703.5008544921876	-592.0170288085939	652.7008666992189	677.7983398437501	-539.4265136718751	624.2540283203126	331.0268859863282	-866.3581542968752	630.2532348632814	289.6918029785157	-832.9503173828127	619.9799194335939	276.1613769531251	-879.9766845703127	611.7249755859376	235.3152770996094	-841.8699340820315	558.0620727539064	168.6236267089844	-1004.507507324219	584.8967895507814	131.4282379150391	-1018.583801269531	526.1024169921876	134.0135498046875	-1014.0263671875	521.5268554687501	57.14944076538087	-809.4881591796877	624.4901123046876	36.57539367675782	-858.422058105469	
274	1.1375	433.2687072753907	1080.820190429688	-621.0040893554689	542.9839477539064	1086.490356445313	-623.1036987304689	384.7127075195314	1050.290283203125	-406.3530578613282	628.2136230468751	1043.140380859375	-420.5592346191407	308.8807067871094	783.1783447265627	-397.0143432617189	320.3452148437501	795.322937011719	-338.9748535156251	322.2563171386719	717.1593017578126	-345.3604736328126	344.2057800292969	727.8442382812501	-292.2733764648438	385.2497558593751	275.2973937988282	-257.9025268554688	375.3564147949219	283.1421813964844	-197.2991027832032	388.4126281738282	228.7989349365235	-222.708724975586	390.5895385742189	237.3219757080079	-162.9884033203125	458.382049560547	85.77931976318361	-213.1053924560547	488.3218078613282	50.97754669189455	-193.111312866211	425.129119873047	49.29905319213869	-203.8007354736329	493.9604492187501	79.16865539550783	-128.6787109375	392.9067993164064	70.28049468994142	-153.3511047363282	470.7188415527345	114.921745300293	-85.89853668212892	463.9934997558595	107.5790328979492	-51.83329010009767	414.4338989257814	130.373275756836	-54.11605453491212	380.0154113769532	54.99682617187501	-104.7632827758789	463.3637695312501	94.03829956054689	4.247857570648194	407.5353393554689	113.6264724731446	9.790414810180666	358.7613830566407	66.31188964843751	-31.05946922302247	411.5766601562501	125.0664291381836	62.49932098388673	680.8824462890626	787.0158691406252	-580.8645629882814	675.3982543945314	760.4650268554689	-526.6880493164064	672.2744750976564	702.3455810546876	-582.9444580078126	652.8232421875001	676.8889770507814	-530.2190551757814	624.6138305664064	333.1066894531251	-860.215026855469	631.1645507812501	291.3285522460938	-827.5388793945315	620.6282348632814	278.4592590332032	-874.6870117187502	612.8148193359376	236.9679718017579	-837.1353149414065	558.1740722656251	173.0819396972657	-1000.14794921875	584.7960815429689	136.2042846679688	-1015.349365234375	526.0533447265626	138.9602355957032	-1010.305053710938	521.5398559570314	56.99971771240236	-808.7408447265627	624.4221191406251	36.9336166381836	-858.0654296875002	
275	1.141666666666667	433.0175170898439	1080.506591796875	-613.2093505859376	542.7478027343751	1085.993530273438	-615.1551513671876	384.3279418945314	1050.388305664063	-398.3433837890626	627.5789184570314	1042.208129882813	-412.5369567871095	309.1262207031251	782.7950439453127	-389.1866149902345	319.7286987304688	794.4744873046877	-330.8916015625001	322.6622924804688	716.3695678710939	-337.9179382324219	343.7131958007813	726.9530029296876	-284.3614501953126	385.4147949218751	275.4439086914063	-251.1994628906251	375.9147949218751	282.7995300292969	-190.4959106445313	388.4385375976564	228.5881347656251	-216.4664306640626	391.4000244140626	236.5962829589844	-156.6692352294922	458.2228088378907	86.65657043457033	-210.3424377441407	488.2669982910157	51.41461181640626	-191.6192932128907	424.919891357422	50.05257034301759	-202.0048217773438	494.6547241210939	77.81344604492189	-126.4743576049805	393.2909240722657	69.95920562744142	-150.6708526611328	471.7874450683595	112.4643249511719	-82.54089355468751	465.3560485839845	104.3001327514649	-48.55030822753908	416.0629272460939	127.0768127441407	-49.66661453247072	380.1801147460938	53.68420791625978	-102.6001815795899	465.2913208007814	89.04480743408205	7.038227558135988	409.5508117675782	108.6740493774414	13.82611846923828	360.1765136718751	62.66924285888673	-28.38160514831544	414.1634216308595	118.7805938720703	66.72053527832033	680.7851562500001	785.8994750976565	-571.9786376953126	675.3422241210939	759.6071166992189	-517.6945800781251	672.5126342773439	701.2150268554689	-573.6431884765626	653.1176757812501	675.6326293945314	-521.0256347656251	625.0723876953126	335.3213500976563	-853.683044433594	632.1428833007814	293.0588073730469	-821.7632446289065	621.1968383789064	280.8974609375001	-869.007751464844	614.0027465820314	238.6581726074219	-832.0476684570315	558.5531005859376	178.2278137207032	-995.4468994140627	584.4542846679689	141.0797882080078	-1011.763916015625	526.0292968750001	144.5047607421875	-1006.150207519531	521.5892944335939	56.99052810668947	-807.7640380859377	624.3337402343751	37.34156799316407	-857.6986083984377	
276	1.145833333333333	432.7554626464845	1080.34814453125	-605.4588012695314	542.3717651367189	1085.593505859375	-607.3424072265626	383.8929443359376	1050.56591796875	-390.1614074707032	626.9576416015626	1041.442138671875	-404.5192260742189	309.3676147460938	782.3026123046877	-381.4922485351563	318.8027648925782	793.8286743164065	-322.6893920898438	324.0443725585938	715.4215087890626	-330.8663330078126	343.4539184570313	726.0189208984376	-276.7112426757813	385.1719665527345	276.0234069824219	-244.7451171875001	376.2036132812501	282.5378112792969	-183.789535522461	388.0015869140626	228.5761413574219	-210.5457611083985	392.0779724121095	235.8933715820313	-150.8828430175782	457.8472595214845	87.44427490234376	-207.9124298095704	488.0618896484376	51.90779876708986	-190.4256439208985	424.8371887207032	50.79553604125978	-200.7608032226563	494.8218383789064	76.87570953369142	-124.6637954711914	393.335418701172	69.68970489501955	-148.1109924316407	472.4741210937501	110.1393585205078	-79.54748535156251	466.3351135253907	101.1546478271485	-45.58404541015626	417.0359497070314	123.8937301635742	-45.72727203369141	380.4403381347657	52.08525466918947	-100.4480133056641	466.7342224121095	84.1440887451172	9.619352340698244	410.9418945312501	103.3364562988282	17.49700355529786	361.2991638183594	59.0326385498047	-25.67461776733399	416.0277099609376	111.9586868286133	70.81017303466798	681.1491699218751	785.0218505859377	-562.8278198242189	675.4129028320314	758.8474121093751	-508.4821166992189	672.8081054687501	700.0715942382814	-564.0947875976564	653.4438476562501	675.0309448242189	-511.1844177246095	625.6052246093751	337.6493835449219	-846.6799926757815	633.3568725585939	295.1530761718751	-815.684265136719	622.0646972656251	283.4502563476563	-862.8579101562502	615.2539062500001	240.5516967773438	-826.467468261719	558.7373046875001	183.2005920410157	-990.1072998046877	584.7077636718751	146.9183044433594	-1007.458679199219	526.0872802734376	150.1577606201172	-1001.617370605469	521.6306762695314	57.03035736083986	-806.8975219726565	624.2162475585939	37.84443664550782	-857.1945800781252	
